<?xml version="1.0" encoding="UTF-8"?><svg id="Layer_2" xmlns="http://www.w3.org/2000/svg" viewBox="0 0 177.03 132.92"><defs><style>.cls-1{fill:#1b1464;opacity:.5;}.cls-2{fill:#4d4d4d;}.cls-3{fill:#0071bc;}.cls-4{fill:#fff;}.cls-5{fill:#2e3192;}.cls-6{fill:#29abe2;}.cls-7{opacity:.6;}</style></defs><g id="Layer_1-2"><rect class="cls-4" width="177.03" height="132.92"/><path class="cls-2" d="M150.63,107.91c.71.61,1.76,2.97,2.21,3.88.87,1.75,2.01,3.89,2.68,5.67.04.1.1.2.08.32-1.19-.16-2.39-.34-3.59-.48-15.59-1.74-30.8-.06-45.7,3.87-2.78.74-6.09,1.56-8.64,2.72-2.95,1.34-5.03,2.84-8.63,3.01s-5.13-1.03-7.89-2.31c-5.07-2.35-10.59-3.75-16.19-4.9-6.38-1.3-12.92-2.43-19.47-2.89-7.97-.56-15.98-.2-23.83.97,1-2.16,1.95-4.34,3.01-6.47.43-.86.86-1.8,1.34-2.63,1.32-2.25,3.56-1.63,6.07-1.41,15.73,1.33,31.44,4.69,44.91,11.81,6.01,3.18,10.35,7.46,17.73,3.22,1.94-1.11,3.73-2.3,5.74-3.36,12.72-6.69,29.61-10.52,44.49-11.67,1.92-.15,4.21-.62,5.69.65Z"/><g class="cls-7"><path class="cls-6" d="M138.29,91.92c-8.63,1.97-16.94,4.78-24.34,8.57-5.58,2.86-10.69,6.33-15.01,10.17-1.37,1.21-2.61,2.5-3.94,3.73.61-2.18,2.34-4.24,4.13-6.02,3.02-3.02,7.02-5.83,10.92-8.25,6.82-4.24,17.4-6.83,25.22-9.99-2.99-7.09-6.48-16.07-9.63-23.13-.55-1.24-2.4-4.14-3.54-4.98-1.22-.9-4.59-.32-5.88.1-3.32,1.09-6.77,2.44-10.03,3.66-2.17.81-2.33,1.15-6.62,3.51-1.36.75-2.58,1.35-3.83,2.12-.06-.17.24-.41.37-.56,5.91-6.38,14.75-9.59,24.86-11.1,2.4-.36,3.08.65,3.8,2.08,1.75,3.47,3.17,7.23,4.77,10.76,2.88,6.36,5.82,12.7,8.71,19.06l.03.25Z"/><path class="cls-6" d="M59.81,61.92c-2.06-1.08-6.17-.76-7.16,1.13l-11.37,27.25c14.38,3.94,29.07,10.46,37.32,19.82.99,1.12,2.12,2.41,2.95,3.59.09.13.31.34.2.49-5.87-5.98-13.31-11.15-21.83-15.1-5.91-2.74-12.31-4.88-18.93-6.55-.64-.16-2.04-.38-2.52-.58-.09-.04-.16-.05-.15-.14,3.56-7.66,6.88-15.39,10.41-23.06,1.04-2.27,2.07-4.97,3.35-7.14.38-.65,1.02-1.75,2.25-1.74,3,.04,2.24-.15,3.69.18,6.43,1.48,6.56,1.92,12.45,6.58.13.1,1.05,1.05.98,1.11"/><path class="cls-3" d="M47.77,68.81c-1.22.3-2.76.24-4.56.07-.76-.07-1.93-.71-2.34-.16-4.04,7.85-9.02,18.73-12.84,26.63,10.15,1.95,22.01,3.82,30.94,7.85,7.73,3.49,14.69,7.83,20.69,12.8l.65.64c-2.01-1.26-4-2.56-6.08-3.76-14.3-8.27-31.37-13.43-49.24-16.03l-.21-.1c3.03-6.17,6.02-12.35,9.09-18.52,1.58-3.18,3.08-6.52,4.81-9.64.85-1.53,1.77-1.75,3.97-1.55,1.61.14,3.19.5,4.78.72l.35,1.05Z"/><path class="cls-3" d="M151.85,96.84c-19.19,2.69-37.44,8.51-52.34,17.75-1.04.65-2.03,1.37-3.11,1.98l.65-.64c4.53-3.71,9.55-7.09,15.06-10.01,10.31-5.46,24.21-8.28,36.57-10.51-3.58-7.16-8.15-18.33-11.76-25.49-.67-1.32-2.14-.54-4.71-.35-.43.03-1.32.35-1.6.27-.67-.21-1.78-1.54-2.39-1.93,1.55-.21,3.07-.55,4.62-.75.84-.11,1.94-.28,2.78-.21,1.34.1,2.12,1.37,2.55,2.16,1.92,3.48,3.59,7.17,5.36,10.71,2.68,5.38,5.57,10.86,8.05,16.28.05.12.34.68.26.74Z"/><path class="cls-1" d="M154.39,104.82c-18.3,1.1-36.63,4.43-52.29,11.53l-6.48,3.15c8.05-7.38,20.52-10.82,32.47-13.62,6.85-1.6,13.81-2.96,20.7-4.46l-.83-2.39c.68-.48,1.83-1.13,2.83-.87.72.19,1.31,1.35,1.58,1.85.82,1.56,1.32,3.22,2.03,4.8Z"/><path class="cls-1" d="M27.66,101.76c18.91,3.13,38.69,6.93,52.83,17.18-.16.03-.24-.04-.36-.09-2.13-.83-4.39-2.13-6.58-3.05-15.69-6.65-33.42-9.94-51.49-10.97l3.15-6.7,3.49.55-1.04,3.09Z"/></g><path class="cls-5" d="M35.05,40.49c.28.13.42.33.42.58,0,.8-.74,1.85-2.22,3.16-2.51,2.22-5.35,3.32-8.54,3.32-2.58,0-4.64-.92-6.17-2.77-1.53-1.85-2.3-4.33-2.3-7.44,0-4.44,1.21-10.68,5.78-16.51,2.57-3.26,7.71-6.19,11.96-6.19,2.16,0,4.41.41,6.73,1.22l-1.23,2.67-.35.78c-.29.62-.65.93-1.08.93-.09,0-.21-.02-.39-.05.17-.37.26-.68.26-.92,0-.81-.55-1.51-1.64-2.12s-2.37-.9-3.83-.9c-2.99,0-5.33,1.23-7.28,3.5-4.82,5.63-5.55,12.4-5.55,16.14,0,2.89.65,5.2,1.96,6.91,1.31,1.72,3.06,2.58,5.25,2.58,1.58,0,3.15-.47,4.73-1.41,1.57-.94,2.73-2.1,3.48-3.48Z"/><path class="cls-5" d="M39.25,47.3c-2.68,0-4.02-1.76-4.02-5.27,0-2.83,1.05-5.55,3.14-8.18,2.09-2.62,4.27-3.93,6.52-3.93,2.71,0,4.07,1.76,4.07,5.27,0,2.84-1.05,5.57-3.14,8.19-2.09,2.62-4.28,3.93-6.57,3.93ZM41.41,45.32c1.37,0,2.51-.75,3.44-2.26.92-1.51,1.38-3.39,1.38-5.64,0-3.68-1.15-5.52-3.46-5.52-1.36,0-2.5.76-3.42,2.27-.92,1.51-1.38,3.39-1.38,5.63,0,3.68,1.15,5.52,3.45,5.52Z"/><path class="cls-5" d="M53.23,46.23l-2.38,1.08.05-.5.13-1.31.13-1.24.83-8.2.1-.94c.06-.73.1-1.32.1-1.77,0-.75-.17-1.13-.51-1.13-.8,0-1.65,1-2.56,3.01-.24-.22-.37-.42-.37-.58,0-.71.58-1.67,1.74-2.89,1.16-1.22,2.08-1.83,2.74-1.83.91,0,1.37.65,1.37,1.94,0,.33-.03.77-.08,1.33l-.13,1.43-.13,1.2-.13,1.26c1.25-2.07,2.62-3.79,4.11-5.14,1.49-1.35,2.76-2.02,3.81-2.02s1.54.79,1.54,2.38c0,.48-.06,1.21-.17,2.17l-.86,6.59c-.18,1.32-.26,2.36-.26,3.13,0,.61.15.92.44.92.73,0,1.64-1.08,2.71-3.24.26.18.38.36.38.55,0,.77-.59,1.77-1.77,3.01-1.18,1.24-2.15,1.87-2.89,1.87-.83,0-1.24-.66-1.24-1.98,0-.97.11-2.3.33-4.01l.56-4.28c.18-1.39.27-2.49.27-3.31,0-.93-.29-1.4-.87-1.4-1.36,0-2.73,1.02-4.12,3.07-1.39,2.05-2.2,4.24-2.44,6.59l-.42,4.24Z"/><path class="cls-5" d="M86.18,40.82c.31.21.46.45.46.73,0,.38-.39,1.02-1.17,1.93-2.09,2.4-4.16,3.6-6.2,3.6-1.25,0-2.27-.49-3.08-1.47s-1.21-2.23-1.21-3.76c0-2.76,1.05-5.55,3.16-8.38,2.11-2.83,4.2-4.24,6.26-4.24,1.49,0,2.24.79,2.24,2.38,0,1.78-.87,3.52-2.61,5.21-1.74,1.7-3.87,2.88-6.37,3.54.24,2.91,1.41,4.36,3.48,4.36s3.73-1.3,5.04-3.89ZM77.73,38.14c.35.12.68.18.97.18,1.52,0,2.84-.46,3.98-1.38,1.14-.92,1.71-2,1.71-3.23,0-1.42-.73-2.12-2.18-2.12-1.05,0-2,.62-2.85,1.86-.85,1.24-1.39,2.81-1.62,4.69Z"/><path class="cls-5" d="M94.72,36.98c2.71-5.1,5.38-7.65,8.01-7.65.68,0,1.37.16,2.05.47l-2.58,2.8c-.39-.22-.89-.33-1.5-.33-1.27,0-2.61,1.02-4.02,3.06-1.41,2.04-2.24,4.16-2.48,6.37l-.5,4.43-2.73.91.06-.54.13-1.18.15-1.18.96-8.64.11-.94c.09-.71.13-1.3.13-1.74,0-.74-.21-1.11-.62-1.11-.98,0-1.95,1.04-2.92,3.11-.31-.23-.45-.47-.44-.71.04-.74.72-1.72,2.05-2.93s2.38-1.83,3.15-1.83c1.04,0,1.56.68,1.56,2.03,0,.33-.03.77-.09,1.33l-.13,1.27-.17,1.53-.17,1.49Z"/><path class="cls-5" d="M113.86,40.85c.31.21.46.45.46.73,0,.38-.39,1.02-1.17,1.93-2.09,2.4-4.16,3.6-6.2,3.6-1.25,0-2.27-.49-3.08-1.47s-1.21-2.23-1.21-3.76c0-2.76,1.05-5.55,3.16-8.38,2.11-2.83,4.2-4.24,6.26-4.24,1.49,0,2.24.79,2.24,2.38,0,1.78-.87,3.52-2.61,5.21-1.74,1.7-3.87,2.88-6.37,3.54.24,2.91,1.41,4.36,3.48,4.36s3.73-1.3,5.04-3.89ZM105.41,38.17c.35.12.68.18.97.18,1.52,0,2.84-.46,3.98-1.38,1.14-.92,1.71-2,1.71-3.23,0-1.42-.73-2.12-2.18-2.12-1.05,0-2,.62-2.85,1.86-.85,1.24-1.39,2.81-1.62,4.69Z"/><path class="cls-5" d="M120.65,46.02l-2.36,1.11.05-.51.13-1.34.13-1.27.82-8.43.1-.96c.06-.75.09-1.36.09-1.82,0-.77-.17-1.16-.5-1.16-.79,0-1.64,1.03-2.54,3.09-.24-.23-.36-.43-.36-.6,0-.73.58-1.72,1.73-2.97,1.15-1.25,2.06-1.88,2.72-1.88.9,0,1.36.67,1.36,2,0,.34-.03.79-.08,1.36l-.13,1.47-.13,1.23-.13,1.29c1.24-2.13,2.6-3.89,4.07-5.28,1.48-1.39,2.73-2.08,3.77-2.08s1.53.82,1.53,2.45c0,.5-.06,1.24-.17,2.23l-.86,6.77c-.17,1.35-.26,2.42-.26,3.21,0,.63.15.94.44.94.73,0,1.62-1.11,2.68-3.32.25.18.38.37.38.56,0,.79-.59,1.82-1.76,3.1-1.17,1.28-2.13,1.92-2.86,1.92-.82,0-1.23-.68-1.23-2.03,0-.99.11-2.37.33-4.12l.56-4.39c.18-1.43.27-2.56.27-3.4,0-.96-.29-1.43-.87-1.43-1.34,0-2.7,1.05-4.08,3.15-1.38,2.1-2.18,4.36-2.42,6.76l-.42,4.36Z"/><path class="cls-5" d="M147.85,29.78l-2.09,2.49c-.98-.4-1.91-.6-2.81-.6-1.6,0-2.86.67-3.79,2.02s-1.38,3.18-1.38,5.52c0,1.65.33,2.97,1,3.98.67,1.01,1.54,1.51,2.61,1.51,1.82,0,3.25-1.18,4.29-3.54.27.29.4.56.4.82,0,1.01-.79,2.12-2.37,3.35-1.58,1.23-3.03,1.84-4.35,1.84s-2.31-.51-3.13-1.52c-.81-1.01-1.22-2.32-1.22-3.93,0-3.14,1.08-5.99,3.23-8.55,2.15-2.57,4.54-3.85,7.17-3.85.95,0,1.77.16,2.44.47Z"/><path class="cls-5" d="M159.93,40.91c.31.21.46.45.46.73,0,.38-.39,1.02-1.17,1.93-2.09,2.4-4.16,3.6-6.2,3.6-1.25,0-2.27-.49-3.08-1.47s-1.21-2.23-1.21-3.76c0-2.76,1.05-5.55,3.16-8.38,2.11-2.83,4.2-4.24,6.26-4.24,1.49,0,2.24.79,2.24,2.38,0,1.78-.87,3.52-2.61,5.21-1.74,1.7-3.87,2.88-6.37,3.54.24,2.91,1.41,4.36,3.48,4.36s3.73-1.3,5.04-3.89ZM151.48,38.22c.35.12.68.18.97.18,1.52,0,2.84-.46,3.98-1.38,1.14-.92,1.71-2,1.71-3.23,0-1.42-.73-2.12-2.18-2.12-1.05,0-2,.62-2.85,1.86-.85,1.24-1.39,2.81-1.62,4.69Z"/><path class="cls-5" d="M64.59,52.64c.89,6.34,20.01-7.42,24.14,7.24,2.24,7.98-.65,10.27-3.66,9.73l-3.21-.58s0,0-.01,0c-3.28-.77-2.37-.62-3.28-.77-2.07-.34-4.08.77-5.97,2.3-2.26,1.85-3.39,4.42-3.39,7.7l-.07,5.84c0,2.43-.26,4.23-.78,5.42-.51,1.18-1.4,2.01-2.65,2.49-.03.01-.06.02-.09.02-.56-.03-1.23-.12-2.03-.26-.05,0-.11,0-.15.04l-2.34,1.79c-.14.11-.09.33.09.35,1.78.19,3.85.38,6.21.55l4.94.37c1.24.09,2.29.13,3.14.13,2.08,0,4.03-.74,5.85-2.22,1.06-.88,1.6-1.5,1.6-1.86,0-.1-.09-.26-.27-.48-1.54,1.58-3.68,2.37-6.42,2.37-.61,0-1.16-.02-1.64-.05l-1.84-.12-1.53-.12-2.84-.23c-.19-.02-.24-.26-.08-.36,1.41-.89,2.38-1.98,2.92-3.27.6-1.44.9-7,.9-10.11l.07-2.27c0-4,1.23-6,3.7-6,.98,0,2.53.29,3.53.93.88.3,1.6.45,2.16.45,2.81,0,5.78-.63,7.61-3.07l1.13-1.51s.02-.03.03-.05c2.17-4.97-1.27-14.76-9.66-15.19-7.58-.39-13.88,2.53-12.75-4.71l2.64-16.32c.01-.1.09-.17.19-.17h5.22c.05,0,.1-.02.13-.05l1.78-1.72c.13-.12.04-.33-.13-.33h-6.72c-.12,0-.21-.1-.19-.21l.25-2.46c.4-4.09,1.05-6.85,1.94-8.29.89-1.44,2.39-2.16,4.49-2.16.84,0,1.7.16,2.58.48.07.03.15.01.2-.04l2.48-2.41c-.81-.12-1.54-.18-2.18-.18-3.43,0-6.22,1.25-8.38,3.75-2.16,2.5-3.47,5.99-3.91,10.47l-.11,1.05h-1.37c-.05,0-.1.02-.14.06l-1.7,1.72c-.12.12-.03.33.14.33h2.84"/><path class="cls-5" d="M89.6,90.66c.27.15.4.29.4.43,0,.33-.44.98-1.31,1.95-1.17,1.32-2.26,1.98-3.26,1.98-.73,0-1.1-.44-1.1-1.33,0-.37.15-1.53.45-3.45l.86-6.66.15-.95.12-.75c.05-.32.08-.59.08-.81,0-.46-.14-.69-.42-.69-.78,0-1.61.78-2.51,2.35-.19-.16-.28-.31-.28-.47,0-.56.56-1.31,1.69-2.25,1.13-.94,2.02-1.41,2.69-1.41.75,0,1.13.48,1.13,1.43,0,.18-.04.56-.12,1.12l-.14.92c-.01.07-.07.44-.17,1.11l-.89,6.85-.15.88c-.13.87-.2,1.45-.2,1.74,0,.39.12.59.37.59.84,0,1.7-.86,2.58-2.57ZM85.44,77.22l1.17-3.94c1.32-.7,2.37-1.59,3.16-2.66.14.16.22.33.24.51.16,1.63-1.36,3.66-4.57,6.09Z"/><path class="cls-5" d="M89.24,94.1l2.28-1.89c.86.92,1.94,1.39,3.23,1.39,1.58,0,2.38-.77,2.38-2.32,0-.86-.73-2.05-2.18-3.59l-.94-.99c-1.38-1.46-2.06-2.64-2.06-3.54,0-1.29.55-2.38,1.65-3.26,1.1-.88,2.46-1.32,4.08-1.32.88,0,1.84.17,2.88.5l-1.98,1.85c-.83-.63-1.76-.95-2.78-.95-1.2,0-1.79.51-1.79,1.52,0,.72.66,1.79,1.99,3.19l1.02,1.1c1.51,1.6,2.27,2.9,2.27,3.88,0,1.4-.66,2.64-1.99,3.72-1.33,1.07-2.86,1.61-4.59,1.61-1.23,0-2.38-.3-3.46-.9Z"/><path class="cls-5" d="M105.5,81.02l-.6,7.6c-.13,1.27-.2,2.21-.2,2.82,0,1.21.38,1.81,1.15,1.81.83,0,1.69-.73,2.57-2.18.15.2.23.38.23.54,0,.6-.49,1.31-1.48,2.15s-1.83,1.25-2.54,1.25c-1.42,0-2.13-.97-2.13-2.91,0-.72.09-1.87.26-3.48l.59-7.6h-3.67l1.75-1.86h2.12l.32-2.91,2.21-.78-.36,3.7h6.36l-1.76,1.86h-4.81Z"/></g></svg>