<?xml version="1.0" encoding="UTF-8"?><svg id="Layer_2" xmlns="http://www.w3.org/2000/svg" viewBox="0 0 132.92 132.92"><defs><style>.cls-1{fill:none;}.cls-2{fill:#fcee21;}.cls-3{fill:#2e3192;}</style></defs><g id="Layer_1-2"><rect class="cls-3" width="132.92" height="132.92"/><path class="cls-2" d="M52.96,37.93c-2.01-2.22-4.53-3.32-7.54-3.32-3.22,0-5.8.95-7.73,2.86-1.92,1.92-2.89,4.46-2.89,7.63,0,3.33,1.01,6.1,3.03,8.31,2.03,2.21,4.55,3.31,7.59,3.31,3.23,0,5.8-.94,7.71-2.83,1.9-1.89,2.85-4.44,2.85-7.64s-1-6.1-3.02-8.32ZM47.91,51.96c-.53,1.35-1.33,2.03-2.4,2.03-1.14,0-1.99-.71-2.57-2.13-.57-1.43-.86-3.55-.86-6.38s.26-4.76.79-6.1c.53-1.35,1.33-2.02,2.41-2.02,1.15,0,2.01.71,2.57,2.12.57,1.42.85,3.53.85,6.35s-.26,4.78-.79,6.13Z"/><path class="cls-2" d="M60.35,42.05v13.48h-3.34v-17.33c0-1.38.28-2.4.83-3.04s1.4-.97,2.55-.97c.95,0,1.79.27,2.54.8.74.54,1.5,1.44,2.28,2.72l4.62,7.51v-10.38h3.34v18.01c0,1.24-.18,2.13-.55,2.66-.37.53-.97.79-1.79.79-.63,0-1.2-.21-1.71-.63-.52-.42-1.15-1.21-1.9-2.38l-6.85-11.24Z"/><path class="cls-2" d="M74.93,31.29c0-2.95.54-5.01,1.61-6.17s2.95-1.74,5.61-1.74h8.35v3.35h-1.72c-1.3,0-5.49.25-5.94.74s-.69,1.42-.69,2.79v13.31h7.68v3.33h-7.68v20.7h-7.23V31.29Z"/><path class="cls-2" d="M79.04,115.44c-.7-.21-1.25-.37-1.65-.5-1.15-.38-2.12-.78-2.91-1.2h-8.26v10.63h6.24v-3.5h6.22c1.43,0,2.44-.2,3.01-.59.57-.4.86-1.06.86-1.99,0-1.2-1.17-2.14-3.51-2.85ZM105.53,113.74v10.63h7.98v-10.63h-7.98ZM88.99,113.74c.19.7.29,1.5.29,2.39,0,2.56-.8,4.58-2.4,6.04-1.61,1.47-3.83,2.2-6.65,2.2h17.69v-10.63h-8.93Z"/><path class="cls-2" d="M58.61,113.74v10.63h-26.73v-42.66c6.68,2.83,14.07,3.94,21.25,2.9.3-.04.59-.09.9-.15v29.28h4.58Z"/><path class="cls-2" d="M65.27,88.59c-.77-.77-1.72-1.16-2.84-1.16s-2.02.39-2.8,1.17c-.78.78-1.17,1.73-1.17,2.83s.39,2.03,1.17,2.81c.78.78,1.71,1.17,2.8,1.17s2.05-.39,2.83-1.16c.78-.77,1.17-1.71,1.17-2.82s-.38-2.07-1.16-2.84ZM58.61,101.02v12.72h7.61v-12.72h-7.61Z"/><rect class="cls-1" x="58.61" y="113.74" width="7.61" height="10.63"/><path class="cls-2" d="M87.97,111.76c-.88-1.04-2.56-1.96-5.06-2.77-.22-.07-.57-.18-1.02-.34-2.04-.63-3.06-1.43-3.06-2.39,0-.55.25-.97.74-1.28s1.17-.46,2.03-.46h5.26v-3.5h-6.08c-3.05,0-5.38.64-6.99,1.92-1.6,1.28-2.41,3.14-2.41,5.58,0,1.63.43,2.92,1.28,3.87.42.47,1.03.93,1.82,1.35h14.51c-.22-.78-.56-1.44-1.02-1.98Z"/><path class="cls-1" d="M89.28,116.13c0,2.56-.8,4.58-2.4,6.04-1.61,1.47-3.83,2.2-6.65,2.2h-7.77v-3.5h6.22c1.43,0,2.44-.2,3.01-.59.57-.4.86-1.06.86-1.99,0-1.2-1.17-2.14-3.51-2.85-.7-.21-1.25-.37-1.65-.5-1.15-.38-2.12-.78-2.91-1.2h14.51c.19.7.29,1.5.29,2.39Z"/><path class="cls-2" d="M91.65,101.02v4h6.27v8.72h7.61v-8.72h6.26v-4h-20.14Z"/><rect class="cls-1" x="97.92" y="113.74" width="7.61" height="10.63"/><path class="cls-2" d="M65.93,67.59l7,5.68c-3.51,6.64-11.82,10.01-18.9,11.19-.31.06-.6.11-.9.15-7.18,1.04-14.57-.07-21.25-2.9-6.92-2.93-13.06-7.72-17.35-13.9C-1.96,44.06,12.7,9.99,41.36,5.89c12.02-1.72,24.74,2.49,33.35,11.04-3.28,2.42-6.57,4.83-9.86,7.25-1.99-6.26-9.08-10.07-15.6-9.33-6.53.73-12.21,5.34-15.39,11.08-3.19,5.74-4.15,12.49-4.01,19.06.09,4.36.66,8.76,2.03,12.88.53,1.59,1.17,3.14,1.96,4.63,1.5,2.85,3.55,5.47,6.02,7.52,0,.02.01.02.01.02,2.16,1.81,4.64,3.2,7.35,3.96,7.56,2.13,13.01-1.82,18.71-6.41Z"/><path class="cls-2" d="M90.89,42.51c-.98,0-1.68-.22-2.08-.65s-.61-1.19-.61-2.25v-6.88c0-1.07.2-1.82.61-2.25s1.1-.65,2.08-.65h5.9v1.9h-3.13c-.52,0-.88.1-1.05.29s-.26.57-.26,1.13v2.08h3.98v1.9h-3.98v2.12c0,.55.09.92.26,1.1s.52.27,1.06.27h3.33v1.9h-6.1Z"/><path class="cls-2" d="M98.78,42.51v-12.7h5.54c1.71,0,3.01.32,3.89.97s1.33,1.58,1.33,2.81c0,.85-.2,1.54-.59,2.08s-.99.91-1.78,1.13l3.72,5.71h-4.84l-2.88-5.98v-.23c.79-.11,1.37-.37,1.74-.77s.55-.96.55-1.7-.2-1.31-.59-1.69-.97-.57-1.73-.57c-.11,0-.21,0-.27,0s-.13.01-.19.02v10.91h-3.91Z"/><path class="cls-2" d="M114.58,42.51c-.98,0-1.68-.22-2.08-.65s-.61-1.19-.61-2.25v-6.88c0-1.07.2-1.82.61-2.25s1.1-.65,2.08-.65h5.9v1.9h-3.13c-.52,0-.88.1-1.05.29s-.26.57-.26,1.13v2.08h3.98v1.9h-3.98v2.12c0,.55.09.92.26,1.1s.52.27,1.06.27h3.33v1.9h-6.1Z"/><path class="cls-2" d="M90.24,52.64v8.27h-2.05v-10.63c0-.85.17-1.47.51-1.87s.86-.59,1.56-.59c.58,0,1.1.16,1.56.49.46.33.92.88,1.4,1.67l2.83,4.61v-6.37h2.05v11.05c0,.76-.11,1.31-.34,1.63-.23.32-.59.49-1.1.49-.38,0-.73-.13-1.05-.39-.32-.26-.71-.74-1.17-1.46l-4.2-6.9Z"/><path class="cls-2" d="M110.8,57.77c-.53,1.18-1.25,2.08-2.16,2.71s-1.96.93-3.16.93c-1.85,0-3.36-.62-4.53-1.87s-1.75-2.87-1.75-4.87.6-3.64,1.81-4.92,2.74-1.91,4.59-1.91c1.28,0,2.35.27,3.21.82s1.48,1.36,1.86,2.43l-1.79,1.03c-.2-.79-.5-1.39-.91-1.78s-.9-.59-1.5-.59c-.89,0-1.57.41-2.04,1.24s-.71,2.03-.71,3.6c0,1.69.2,2.92.6,3.69s1.04,1.15,1.92,1.15c.65,0,1.24-.23,1.77-.7s.92-1.1,1.16-1.89l1.63.94Z"/><path class="cls-2" d="M114.58,60.95c-.98,0-1.68-.22-2.08-.65s-.61-1.19-.61-2.25v-6.88c0-1.07.2-1.82.61-2.25s1.1-.65,2.08-.65h5.9v1.9h-3.13c-.52,0-.88.1-1.05.29s-.26.57-.26,1.13v2.08h3.98v1.9h-3.98v2.12c0,.55.09.92.26,1.1s.52.27,1.06.27h3.33v1.9h-6.1Z"/></g></svg>